# Blender v2.79 (sub 0) OBJ File: ''
# www.blender.org
mtllib Pipeline.mtl
o Cylinder
v 1.291796 -0.562789 -1.125972
v 1.291796 1.437211 -1.125972
v 1.486887 -0.562789 -1.106757
v 1.486887 1.437211 -1.106757
v 1.674480 -0.562789 -1.049851
v 1.674480 1.437211 -1.049851
v 1.847366 -0.562789 -0.957441
v 1.847366 1.437211 -0.957441
v 1.998903 -0.562789 -0.833079
v 1.998903 1.437211 -0.833079
v 2.123266 -0.562789 -0.681542
v 2.123266 1.437211 -0.681542
v 2.215676 -0.562789 -0.508655
v 2.215676 1.437211 -0.508655
v 2.272582 -0.562789 -0.321062
v 2.272582 1.437211 -0.321062
v 2.291796 -0.562789 -0.125972
v 2.291796 1.437211 -0.125972
v 2.272582 -0.562789 0.069118
v 2.272582 1.437211 0.069118
v 2.215676 -0.562789 0.256711
v 2.215676 1.437211 0.256711
v 2.123266 -0.562789 0.429598
v 2.123266 1.437211 0.429598
v 1.998903 -0.562789 0.581135
v 1.998903 1.437211 0.581135
v 1.847366 -0.562789 0.705498
v 1.847366 1.437211 0.705498
v 1.674479 -0.562789 0.797908
v 1.674479 1.437211 0.797908
v 1.486886 -0.562789 0.854814
v 1.486886 1.437211 0.854814
v 1.291796 -0.562789 0.874028
v 1.291796 1.437211 0.874028
v 1.096705 -0.562789 0.854813
v 1.096705 1.437211 0.854813
v 0.909112 -0.562789 0.797908
v 0.909112 1.437211 0.797908
v 0.736225 -0.562789 0.705498
v 0.736225 1.437211 0.705498
v 0.584689 -0.562789 0.581135
v 0.584689 1.437211 0.581135
v 0.460326 -0.562789 0.429598
v 0.460326 1.437211 0.429598
v 0.367916 -0.562789 0.256711
v 0.367916 1.437211 0.256711
v 0.311011 -0.562789 0.069118
v 0.311011 1.437211 0.069118
v 0.291796 -0.562789 -0.125973
v 0.291796 1.437211 -0.125973
v 0.311011 -0.562789 -0.321063
v 0.311011 1.437211 -0.321063
v 0.367917 -0.562789 -0.508656
v 0.367917 1.437211 -0.508656
v 0.460327 -0.562789 -0.681543
v 0.460327 1.437211 -0.681543
v 0.584690 -0.562789 -0.833079
v 0.584690 1.437211 -0.833079
v 0.736227 -0.562789 -0.957442
v 0.736227 1.437211 -0.957442
v 0.909114 -0.562789 -1.049852
v 0.909114 1.437211 -1.049852
v 1.096707 -0.562789 -1.106757
v 1.096707 1.437211 -1.106757
vn 0.0980 0.0000 -0.9952
vn 0.2903 0.0000 -0.9569
vn 0.4714 0.0000 -0.8819
vn 0.6344 0.0000 -0.7730
vn 0.7730 0.0000 -0.6344
vn 0.8819 0.0000 -0.4714
vn 0.9569 0.0000 -0.2903
vn 0.9952 0.0000 -0.0980
vn 0.9952 0.0000 0.0980
vn 0.9569 0.0000 0.2903
vn 0.8819 0.0000 0.4714
vn 0.7730 0.0000 0.6344
vn 0.6344 0.0000 0.7730
vn 0.4714 0.0000 0.8819
vn 0.2903 0.0000 0.9569
vn 0.0980 0.0000 0.9952
vn -0.0980 0.0000 0.9952
vn -0.2903 0.0000 0.9569
vn -0.4714 0.0000 0.8819
vn -0.6344 0.0000 0.7730
vn -0.7730 0.0000 0.6344
vn -0.8819 0.0000 0.4714
vn -0.9569 0.0000 0.2903
vn -0.9952 0.0000 0.0980
vn -0.9952 0.0000 -0.0980
vn -0.9569 0.0000 -0.2903
vn -0.8819 0.0000 -0.4714
vn -0.7730 0.0000 -0.6344
vn -0.6344 0.0000 -0.7730
vn -0.4714 0.0000 -0.8819
vn -0.2903 0.0000 -0.9569
vn -0.0980 0.0000 -0.9952
usemtl None
s off
f 1//1 2//1 4//1 3//1
f 3//2 4//2 6//2 5//2
f 5//3 6//3 8//3 7//3
f 7//4 8//4 10//4 9//4
f 9//5 10//5 12//5 11//5
f 11//6 12//6 14//6 13//6
f 13//7 14//7 16//7 15//7
f 15//8 16//8 18//8 17//8
f 17//9 18//9 20//9 19//9
f 19//10 20//10 22//10 21//10
f 21//11 22//11 24//11 23//11
f 23//12 24//12 26//12 25//12
f 25//13 26//13 28//13 27//13
f 27//14 28//14 30//14 29//14
f 29//15 30//15 32//15 31//15
f 31//16 32//16 34//16 33//16
f 33//17 34//17 36//17 35//17
f 35//18 36//18 38//18 37//18
f 37//19 38//19 40//19 39//19
f 39//20 40//20 42//20 41//20
f 41//21 42//21 44//21 43//21
f 43//22 44//22 46//22 45//22
f 45//23 46//23 48//23 47//23
f 47//24 48//24 50//24 49//24
f 49//25 50//25 52//25 51//25
f 51//26 52//26 54//26 53//26
f 53//27 54//27 56//27 55//27
f 55//28 56//28 58//28 57//28
f 57//29 58//29 60//29 59//29
f 59//30 60//30 62//30 61//30
f 61//31 62//31 64//31 63//31
f 63//32 64//32 2//32 1//32
